<svg width="64" height="64" viewBox="0 0 64 64" fill="none" xmlns="http://www.w3.org/2000/svg">
<g clip-path="url(#clip0_1089_49335)">
<path d="M25.4667 30.6667C23.8754 30.6667 22.3493 30.0345 21.2241 28.9093C20.0988 27.7841 19.4667 26.258 19.4667 24.6667C19.4667 23.0754 20.0988 21.5493 21.2241 20.424C22.3493 19.2988 23.8754 18.6667 25.4667 18.6667C27.058 18.6667 28.5841 19.2988 29.7093 20.424C30.8346 21.5493 31.4667 23.0754 31.4667 24.6667C31.4667 26.258 30.8346 27.7841 29.7093 28.9093C28.5841 30.0345 27.058 30.6667 25.4667 30.6667ZM26.6667 52.6613V43.7333C26.6667 42.432 27.0507 41.2347 27.744 40.1653C25.3671 39.8272 22.9458 39.9886 20.6349 40.6392C18.3239 41.2899 16.174 42.4154 14.3227 43.944C17.2376 48.2575 21.6271 51.3583 26.6667 52.664V52.6613ZM11.8747 39.0933C15.7694 36.2112 20.4883 34.6591 25.3334 34.6667C28.1147 34.6667 30.7814 35.168 33.2454 36.0853C35.5867 35.1707 38.3787 34.6667 41.3334 34.6667C45.76 34.6667 49.8267 35.7973 52.5494 37.7493C53.4495 34.5223 53.5769 31.1287 52.9214 27.8433C52.2658 24.5578 50.8457 21.473 48.7761 18.8385C46.7064 16.2041 44.0454 14.0941 41.0085 12.6794C37.9716 11.2648 34.6443 10.5853 31.2959 10.6959C27.9475 10.8066 24.6723 11.7042 21.7354 13.3163C18.7986 14.9283 16.2826 17.2093 14.3914 19.9747C12.5002 22.74 11.2868 25.9119 10.8496 29.2334C10.4123 32.555 10.7635 35.9328 11.8747 39.0933ZM50.344 42.896C49.296 41.4747 45.7894 40 41.3334 40C35.984 40 32 42.1253 32 43.7333V53.3333C35.701 53.3354 39.3387 52.3742 42.5555 50.5441C45.7723 48.7141 48.4574 46.0783 50.3467 42.896H50.344ZM32 58.6667C17.272 58.6667 5.33337 46.728 5.33337 32C5.33337 17.272 17.272 5.33334 32 5.33334C46.728 5.33334 58.6667 17.272 58.6667 32C58.6667 46.728 46.728 58.6667 32 58.6667ZM41.3334 33.3333C39.9189 33.3333 38.5623 32.7714 37.5621 31.7712C36.5619 30.7711 36 29.4145 36 28C36 26.5855 36.5619 25.229 37.5621 24.2288C38.5623 23.2286 39.9189 22.6667 41.3334 22.6667C42.7479 22.6667 44.1044 23.2286 45.1046 24.2288C46.1048 25.229 46.6667 26.5855 46.6667 28C46.6667 29.4145 46.1048 30.7711 45.1046 31.7712C44.1044 32.7714 42.7479 33.3333 41.3334 33.3333Z" fill="#6278FF"/>
</g>
<defs>
<clipPath id="clip0_1089_49335">
<rect width="64" height="64" fill="white"/>
</clipPath>
</defs>
</svg>
