<svg width="121" height="40" viewBox="0 0 121 40" fill="none" xmlns="http://www.w3.org/2000/svg">
<path d="M11.4091 8.72727L14.0909 15.5H14.2727L19.2727 8.72727H26.5909L17.7273 20.3636L23 32H15.9545L13.1364 25.0909H12.9545L7.86364 32H0.5L9.59091 20.3636L4.59091 8.72727H11.4091Z" fill="#6278FF"/>
<path d="M27.321 29V11.5455H34.5312C35.8381 11.5455 36.9659 11.8011 37.9148 12.3125C38.8693 12.8182 39.6051 13.5256 40.1222 14.4347C40.6392 15.3381 40.8977 16.3892 40.8977 17.5881C40.8977 18.7926 40.6335 19.8466 40.1051 20.75C39.5824 21.6477 38.8352 22.3437 37.8636 22.8381C36.892 23.3324 35.7386 23.5795 34.4034 23.5795H29.9545V20.2557H33.6193C34.2557 20.2557 34.7869 20.1449 35.2131 19.9233C35.6449 19.7017 35.9716 19.392 36.1932 18.9943C36.4148 18.5909 36.5256 18.1222 36.5256 17.5881C36.5256 17.0483 36.4148 16.5824 36.1932 16.1903C35.9716 15.7926 35.6449 15.4858 35.2131 15.2699C34.7813 15.054 34.25 14.946 33.6193 14.946H31.5398V29H27.321ZM42.9773 29V11.5455H47.196V25.5739H54.4574V29H42.9773ZM72.4361 20.2727C72.4361 22.1932 72.0668 23.821 71.3281 25.1562C70.5895 26.4915 69.5895 27.5057 68.3281 28.1989C67.0724 28.892 65.6634 29.2386 64.1009 29.2386C62.5327 29.2386 61.1207 28.8892 59.8651 28.1903C58.6094 27.4915 57.6122 26.4773 56.8736 25.1477C56.1406 23.8125 55.7741 22.1875 55.7741 20.2727C55.7741 18.3523 56.1406 16.7244 56.8736 15.3892C57.6122 14.054 58.6094 13.0398 59.8651 12.3466C61.1207 11.6534 62.5327 11.3068 64.1009 11.3068C65.6634 11.3068 67.0724 11.6534 68.3281 12.3466C69.5895 13.0398 70.5895 14.054 71.3281 15.3892C72.0668 16.7244 72.4361 18.3523 72.4361 20.2727ZM68.1236 20.2727C68.1236 19.1364 67.9616 18.1761 67.6378 17.392C67.3196 16.608 66.8594 16.0142 66.2571 15.6108C65.6605 15.2074 64.9418 15.0057 64.1009 15.0057C63.2656 15.0057 62.5469 15.2074 61.9446 15.6108C61.3423 16.0142 60.8793 16.608 60.5554 17.392C60.2372 18.1761 60.0781 19.1364 60.0781 20.2727C60.0781 21.4091 60.2372 22.3693 60.5554 23.1534C60.8793 23.9375 61.3423 24.5312 61.9446 24.9347C62.5469 25.3381 63.2656 25.5398 64.1009 25.5398C64.9418 25.5398 65.6605 25.3381 66.2571 24.9347C66.8594 24.5312 67.3196 23.9375 67.6378 23.1534C67.9616 22.3693 68.1236 21.4091 68.1236 20.2727ZM74.8991 29V11.5455H82.1094C83.4162 11.5455 84.544 11.7812 85.4929 12.2528C86.4474 12.7187 87.1832 13.3892 87.7003 14.2642C88.2173 15.1335 88.4759 16.1648 88.4759 17.358C88.4759 18.5682 88.2116 19.5966 87.6832 20.4432C87.1548 21.2841 86.4048 21.9261 85.4332 22.3693C84.4616 22.8068 83.3111 23.0256 81.9815 23.0256H77.4219V19.7017H81.1974C81.8338 19.7017 82.3651 19.6193 82.7912 19.4545C83.223 19.2841 83.5497 19.0284 83.7713 18.6875C83.9929 18.3409 84.1037 17.8977 84.1037 17.358C84.1037 16.8182 83.9929 16.3722 83.7713 16.0199C83.5497 15.6619 83.223 15.3949 82.7912 15.2188C82.3594 15.0369 81.8281 14.946 81.1974 14.946H79.1179V29H74.8991ZM84.7259 21.0227L89.0724 29H84.4702L80.2088 21.0227H84.7259ZM90.7898 29V11.5455H102.96V14.9716H95.0085V18.5511H102.338V21.9858H95.0085V25.5739H102.96V29H90.7898ZM105.602 29V11.5455H112.812C114.119 11.5455 115.247 11.7812 116.196 12.2528C117.151 12.7187 117.886 13.3892 118.403 14.2642C118.92 15.1335 119.179 16.1648 119.179 17.358C119.179 18.5682 118.915 19.5966 118.386 20.4432C117.858 21.2841 117.108 21.9261 116.136 22.3693C115.165 22.8068 114.014 23.0256 112.685 23.0256H108.125V19.7017H111.901C112.537 19.7017 113.068 19.6193 113.494 19.4545C113.926 19.2841 114.253 19.0284 114.474 18.6875C114.696 18.3409 114.807 17.8977 114.807 17.358C114.807 16.8182 114.696 16.3722 114.474 16.0199C114.253 15.6619 113.926 15.3949 113.494 15.2188C113.063 15.0369 112.531 14.946 111.901 14.946H109.821V29H105.602ZM115.429 21.0227L119.776 29H115.173L110.912 21.0227H115.429Z" fill="white"/>
</svg>
