<svg width="381" height="97" viewBox="0 0 381 97" fill="none" xmlns="http://www.w3.org/2000/svg">
<path fill-rule="evenodd" clip-rule="evenodd" d="M0 73.8397L18.5173 41.4394C19.2281 40.1964 19.6135 38.7937 19.6376 37.3618C19.6617 35.9298 19.3238 34.515 18.6553 33.2486L1.26136 0.260742H15.5527C16.8479 0.260457 18.1187 0.613922 19.2277 1.283C20.3368 1.95207 21.2421 2.91134 21.8458 4.05727L37.5332 33.7906C38.093 34.8502 38.3759 36.034 38.3557 37.2321C38.3355 38.4303 38.0129 39.6039 37.4177 40.644L20.4845 70.2545C19.8613 71.3428 18.962 72.2474 17.8773 72.8769C16.7926 73.5064 15.561 73.8385 14.3068 73.8397H0Z" fill="#C0C9FF"/>
<path fill-rule="evenodd" clip-rule="evenodd" d="M23.751 73.8397L42.2683 41.4394C42.9791 40.1964 43.3645 38.7937 43.3886 37.3618C43.4127 35.9298 43.0748 34.515 42.4062 33.2486L25.0123 0.260742H39.3037C40.5989 0.260457 41.8696 0.613922 42.9787 1.283C44.0878 1.95207 44.993 2.91134 45.5968 4.05727L61.2842 33.7906C61.8439 34.8502 62.1268 36.034 62.1066 37.2321C62.0865 38.4303 61.7638 39.6039 61.1687 40.644L44.2355 70.2545C43.6123 71.3428 42.7129 72.2474 41.6282 72.8769C40.5435 73.5064 39.3119 73.8385 38.0578 73.8397H23.751Z" fill="#8193FF"/>
<path fill-rule="evenodd" clip-rule="evenodd" d="M106.86 73.8397L88.343 41.4394C87.6322 40.1964 87.2469 38.7937 87.2228 37.3618C87.1986 35.9298 87.5365 34.515 88.2051 33.2486L105.599 0.260742H91.3076C90.0124 0.260457 88.7416 0.613922 87.6326 1.283C86.5235 1.95207 85.6182 2.91134 85.0145 4.05727L69.3271 33.7906C68.7673 34.8502 68.4844 36.034 68.5046 37.2321C68.5248 38.4303 68.8475 39.6039 69.4426 40.644L86.3758 70.2545C86.999 71.3428 87.8983 72.2474 88.983 72.8769C90.0677 73.5064 91.2993 73.8385 92.5535 73.8397H106.86Z" fill="black"/>
<path fill-rule="evenodd" clip-rule="evenodd" d="M47.5022 73.8397L66.0195 41.4394C66.7303 40.1964 67.1157 38.7937 67.1398 37.3618C67.1639 35.9298 66.826 34.515 66.1575 33.2486L48.7636 0.260742H63.0549C64.3501 0.260457 65.6209 0.613922 66.7299 1.283C67.839 1.95207 68.7443 2.91134 69.348 4.05727L85.0354 33.7906C85.5952 34.8502 85.8781 36.034 85.8579 37.2321C85.8377 38.4303 85.515 39.6039 84.9199 40.644L67.9867 70.2545C67.3635 71.3428 66.4642 72.2474 65.3795 72.8769C64.2948 73.5064 63.0632 73.8385 61.809 73.8397H47.5022Z" fill="#6278FF"/>
<path fill-rule="evenodd" clip-rule="evenodd" d="M171.938 71.04H184.897V0H171.938V71.04ZM163.512 46.272C163.512 31.68 154.488 20.544 142.2 20.544C133.368 20.544 126.84 26.592 123.96 35.712V21.504H111V90.24H123.96V56.832C126.84 65.952 133.368 72 142.2 72C154.488 72 163.512 60.864 163.512 46.272ZM150.072 46.272C150.072 54.24 144.504 60.192 137.496 60.192C129.624 60.192 123.96 54.24 123.96 46.272C123.96 38.4 129.624 32.448 137.496 32.448C144.504 32.448 150.072 38.4 150.072 46.272ZM193.361 46.272C193.361 31.68 204.785 20.544 219.857 20.544C234.929 20.544 246.353 31.68 246.353 46.272C246.353 60.864 234.929 72 219.857 72C204.785 72 193.361 60.864 193.361 46.272ZM206.801 46.272C206.801 54.24 212.465 60.192 219.857 60.192C227.345 60.192 232.913 54.24 232.913 46.272C232.913 38.4 227.345 32.448 219.857 32.448C212.465 32.448 206.801 38.4 206.801 46.272ZM267.772 34.368V21.504H254.812V71.04H267.772V43.296C267.772 34.752 275.837 29.952 286.301 33.6V21.312C279.005 19.008 271.132 21.504 267.772 34.368ZM313.783 20.544C330.391 20.544 342.008 34.368 339.32 50.88H301.111C302.839 56.736 307.832 60.864 314.648 60.864C320.023 60.864 324.536 58.272 326.936 53.952L337.592 58.752C333.271 66.528 325.016 72 314.264 72C299.191 72 287.768 60.864 287.768 46.272C287.768 31.68 298.999 20.544 313.783 20.544ZM313.783 31.68C307.927 31.68 303.128 35.424 301.304 40.992H326.36C324.632 35.424 319.927 31.68 313.783 31.68ZM361.241 34.368V21.504H348.281V71.04H361.241V43.296C361.241 34.752 369.305 29.952 379.769 33.6V21.312C372.473 19.008 364.601 21.504 361.241 34.368ZM291.208 85.4C290.332 84.488 289.24 84.032 287.932 84.032C286.408 84.032 285.214 84.638 284.35 85.85V80H283V93.32H284.35V91.682C285.214 92.894 286.408 93.5 287.932 93.5C289.252 93.5 290.35 93.05 291.226 92.15C292.102 91.238 292.54 90.11 292.54 88.766C292.54 87.422 292.096 86.3 291.208 85.4ZM290.182 91.25C289.534 91.91 288.724 92.24 287.752 92.24C286.792 92.24 285.982 91.91 285.322 91.25C284.674 90.578 284.35 89.75 284.35 88.766C284.35 87.782 284.674 86.96 285.322 86.3C285.982 85.628 286.792 85.292 287.752 85.292C288.724 85.292 289.534 85.622 290.182 86.282C290.83 86.942 291.154 87.77 291.154 88.766C291.154 89.762 290.83 90.59 290.182 91.25ZM300.864 84.212L297.678 91.988L294.51 84.212H293.034L296.94 93.446L295.464 96.92H296.85L302.25 84.212H300.864ZM314.154 84.032C315.462 84.032 316.554 84.488 317.43 85.4C318.318 86.3 318.762 87.422 318.762 88.766C318.762 90.11 318.324 91.238 317.448 92.15C316.572 93.05 315.474 93.5 314.154 93.5C312.63 93.5 311.436 92.894 310.572 91.682V96.92H309.222V84.212H310.572V85.85C311.436 84.638 312.63 84.032 314.154 84.032ZM313.974 92.24C314.946 92.24 315.756 91.91 316.404 91.25C317.052 90.59 317.376 89.762 317.376 88.766C317.376 87.77 317.052 86.942 316.404 86.282C315.756 85.622 314.946 85.292 313.974 85.292C313.014 85.292 312.204 85.628 311.544 86.3C310.896 86.96 310.572 87.782 310.572 88.766C310.572 89.75 310.896 90.578 311.544 91.25C312.204 91.91 313.014 92.24 313.974 92.24ZM328.551 85.526C327.651 84.53 326.499 84.032 325.095 84.032C323.763 84.032 322.647 84.488 321.747 85.4C320.847 86.3 320.397 87.422 320.397 88.766C320.397 90.11 320.853 91.238 321.765 92.15C322.689 93.05 323.829 93.5 325.185 93.5C326.169 93.5 327.039 93.26 327.795 92.78C328.551 92.288 329.121 91.64 329.505 90.836L328.353 90.35C328.065 90.95 327.645 91.424 327.093 91.772C326.541 92.12 325.911 92.294 325.203 92.294C324.279 92.294 323.493 92.006 322.845 91.43C322.209 90.842 321.843 90.092 321.747 89.18H329.757C329.865 87.728 329.463 86.51 328.551 85.526ZM322.935 86.03C323.547 85.502 324.267 85.238 325.095 85.238C325.947 85.238 326.673 85.508 327.273 86.048C327.885 86.576 328.257 87.248 328.389 88.064H321.783C321.939 87.236 322.323 86.558 322.935 86.03ZM336.138 84.032C337.542 84.032 338.694 84.53 339.594 85.526C340.506 86.51 340.908 87.728 340.8 89.18H332.79C332.886 90.092 333.252 90.842 333.888 91.43C334.536 92.006 335.322 92.294 336.246 92.294C336.954 92.294 337.584 92.12 338.136 91.772C338.688 91.424 339.108 90.95 339.396 90.35L340.548 90.836C340.164 91.64 339.594 92.288 338.838 92.78C338.082 93.26 337.212 93.5 336.228 93.5C334.872 93.5 333.732 93.05 332.808 92.15C331.896 91.238 331.44 90.11 331.44 88.766C331.44 87.422 331.89 86.3 332.79 85.4C333.69 84.488 334.806 84.032 336.138 84.032ZM336.138 85.238C335.31 85.238 334.59 85.502 333.978 86.03C333.366 86.558 332.982 87.236 332.826 88.064H339.432C339.3 87.248 338.928 86.576 338.316 86.048C337.716 85.508 336.99 85.238 336.138 85.238ZM344.317 85.67V84.212H342.967V93.32H344.317V88.118C344.317 87.158 344.677 86.414 345.397 85.886C346.129 85.346 347.005 85.19 348.025 85.418V84.104C347.257 83.972 346.543 84.05 345.883 84.338C345.235 84.626 344.713 85.07 344.317 85.67ZM351.071 93.32H349.721V80H351.071V93.32ZM361.351 85.526C360.451 84.53 359.299 84.032 357.895 84.032C356.563 84.032 355.447 84.488 354.547 85.4C353.647 86.3 353.197 87.422 353.197 88.766C353.197 90.11 353.653 91.238 354.565 92.15C355.489 93.05 356.629 93.5 357.985 93.5C358.969 93.5 359.839 93.26 360.595 92.78C361.351 92.288 361.921 91.64 362.305 90.836L361.153 90.35C360.865 90.95 360.445 91.424 359.893 91.772C359.341 92.12 358.711 92.294 358.003 92.294C357.079 92.294 356.293 92.006 355.645 91.43C355.009 90.842 354.643 90.092 354.547 89.18H362.557C362.665 87.728 362.263 86.51 361.351 85.526ZM355.735 86.03C356.347 85.502 357.067 85.238 357.895 85.238C358.747 85.238 359.473 85.508 360.073 86.048C360.685 86.576 361.057 87.248 361.189 88.064H354.583C354.739 87.236 355.123 86.558 355.735 86.03ZM364.184 90.962L365.552 90.692C365.744 91.808 366.53 92.366 367.91 92.366C368.606 92.366 369.17 92.228 369.602 91.952C370.046 91.664 370.268 91.298 370.268 90.854C370.268 90.398 370.064 90.05 369.656 89.81C369.26 89.57 368.78 89.402 368.216 89.306C367.652 89.198 367.082 89.084 366.506 88.964C365.942 88.832 365.456 88.58 365.048 88.208C364.652 87.836 364.454 87.326 364.454 86.678C364.454 85.91 364.778 85.28 365.426 84.788C366.074 84.284 366.902 84.032 367.91 84.032C368.894 84.032 369.698 84.26 370.322 84.716C370.946 85.172 371.33 85.79 371.474 86.57L370.124 86.84C369.92 85.736 369.182 85.184 367.91 85.184C367.298 85.184 366.794 85.316 366.398 85.58C366.002 85.844 365.804 86.192 365.804 86.624C365.804 87.044 366.002 87.368 366.398 87.596C366.806 87.812 367.292 87.968 367.856 88.064C368.432 88.16 369.002 88.28 369.566 88.424C370.142 88.556 370.628 88.82 371.024 89.216C371.432 89.612 371.636 90.146 371.636 90.818C371.636 91.598 371.282 92.24 370.574 92.744C369.866 93.248 368.978 93.5 367.91 93.5C366.878 93.5 366.032 93.272 365.372 92.816C364.724 92.36 364.328 91.742 364.184 90.962ZM374.345 90.692L372.977 90.962C373.121 91.742 373.517 92.36 374.165 92.816C374.825 93.272 375.671 93.5 376.703 93.5C377.771 93.5 378.659 93.248 379.367 92.744C380.075 92.24 380.429 91.598 380.429 90.818C380.429 90.146 380.225 89.612 379.817 89.216C379.421 88.82 378.935 88.556 378.359 88.424C377.795 88.28 377.225 88.16 376.649 88.064C376.085 87.968 375.599 87.812 375.191 87.596C374.795 87.368 374.597 87.044 374.597 86.624C374.597 86.192 374.795 85.844 375.191 85.58C375.587 85.316 376.091 85.184 376.703 85.184C377.975 85.184 378.713 85.736 378.917 86.84L380.267 86.57C380.123 85.79 379.739 85.172 379.115 84.716C378.491 84.26 377.687 84.032 376.703 84.032C375.695 84.032 374.867 84.284 374.219 84.788C373.571 85.28 373.247 85.91 373.247 86.678C373.247 87.326 373.445 87.836 373.841 88.208C374.249 88.58 374.735 88.832 375.299 88.964C375.875 89.084 376.445 89.198 377.009 89.306C377.573 89.402 378.053 89.57 378.449 89.81C378.857 90.05 379.061 90.398 379.061 90.854C379.061 91.298 378.839 91.664 378.395 91.952C377.963 92.228 377.399 92.366 376.703 92.366C375.323 92.366 374.537 91.808 374.345 90.692Z" fill="black"/>
</svg>
